<svg xmlns="http://www.w3.org/2000/svg" viewBox="0 0 24 24" width="24" height="24">
  <path d="M12 2.2c3.2 0 3.58 0 4.85.07 1.17.07 1.96.25 2.42.42a4.85 4.85 0 0 1 1.67 1.06 4.85 4.85 0 0 1 1.06 1.67c.18.46.35 1.25.42 2.42.07 1.27.07 1.65.07 4.85s0 3.58-.07 4.85c-.07 1.17-.25 1.96-.42 2.42a4.85 4.85 0 0 1-1.06 1.67 4.85 4.85 0 0 1-1.67 1.06c-.46.18-1.25.35-2.42.42-1.27.07-1.65.07-4.85.07s-3.58 0-4.85-.07c-1.17-.07-1.96-.25-2.42-.42a4.85 4.85 0 0 1-1.67-1.06 4.85 4.85 0 0 1-1.06-1.67c-.18-.46-.35-1.25-.42-2.42C2.2 15.58 2.2 15.2 2.2 12s0-3.58.07-4.85c.07-1.17.25-1.96.42-2.42a4.85 4.85 0 0 1 1.06-1.67A4.85 4.85 0 0 1 5.37 2.62c.46-.18 1.25-.35 2.42-.42C8.42 2.2 8.8 2.2 12 2.2m0-2.2C8.7 0 8.29 0 7.05.07c-1.35.07-2.28.25-3.08.53a6.82 6.82 0 0 0-2.45 1.44A6.82 6.82 0 0 0 .07 4.52C-.19 5.32-.38 6.25-.45 7.6c-.07 1.24-.07 1.65-.07 4.85s0 3.58.07 4.85c.07 1.35.25 2.28.53 3.08a6.82 6.82 0 0 0 1.44 2.45c.78.78 1.72 1.38 2.52 1.67.8.28 1.73.46 3.08.53 1.24.07 1.65.07 4.85.07s3.58 0 4.85-.07c1.35-.07 2.28-.25 3.08-.53a6.82 6.82 0 0 0 2.45-1.44 6.82 6.82 0 0 0 1.44-2.45c.28-.8.46-1.73.53-3.08.07-1.24.07-1.65.07-4.85s0-3.58-.07-4.85c-.07-1.35-.25-2.28-.53-3.08a6.82 6.82 0 0 0-1.44-2.45A6.82 6.82 0 0 0 19.52.53c-.8-.28-1.73-.46-3.08-.53C15.29 0 14.9 0 12 0z"/>
  <path d="M12 5.8a6.2 6.2 0 1 0 0 12.4 6.2 6.2 0 0 0 0-12.4zm0 10.2a4 4 0 1 1 0-8 4 4 0 0 1 0 8zm6.4-10.8a1.44 1.44 0 1 0 0-2.88 1.44 1.44 0 0 0 0 2.88z"/>
</svg>
