<svg xmlns="http://www.w3.org/2000/svg" viewBox="0 0 24 24" width="24" height="24">
  <path d="M23.953 4.57a10.004 10.004 0 0 1-2.825.775 4.934 4.934 0 0 0 2.163-2.724 9.962 9.962 0 0 1-3.127 1.195 4.922 4.922 0 0 0-8.384 4.48A13.95 13.95 0 0 1 1.671 3.149a4.922 4.922 0 0 0 1.523 6.573 4.903 4.903 0 0 1-2.229-.616v.061a4.923 4.923 0 0 0 3.946 4.827 4.912 4.912 0 0 1-2.224.085 4.923 4.923 0 0 0 4.588 3.417A9.867 9.867 0 0 1 .964 19.54a13.925 13.925 0 0 0 7.548 2.211c9.055 0 14.004-7.487 14.004-13.956 0-.213 0-.425-.015-.637A10.006 10.006 0 0 0 24 4.59a9.933 9.933 0 0 1-2.847.775 4.92 4.92 0 0 0 2.162-2.724z"/>
</svg>
